<?xml version="1.0" encoding="UTF-8"?>
<svg width="1172px" height="665px" viewBox="0 0 1172 665" version="1.1" xmlns="http://www.w3.org/2000/svg" xmlns:xlink="http://www.w3.org/1999/xlink">
    <!-- Generator: Sketch 49.3 (51167) - http://www.bohemiancoding.com/sketch -->
    <title>flower</title>
    <desc>Created with Sketch.</desc>
    <defs></defs>
    <g id="Page-1" stroke="none" stroke-width="1" fill="none" fill-rule="evenodd">
        <g id="flower" transform="translate(4.000000, 8.000000)" stroke="#C800FF" stroke-width="5">
            <path d="M80.1804798,653.277251 L102.988765,407.948067 L102.988765,256.839614 C97.9509168,216.714221 94.1906701,188.988828 91.7080249,173.663436 C82.6726228,117.887812 73.8507896,90 65.2425253,90 C53.0863394,90 41.3069667,114.469113 29.9044074,163.40734 L0,221.482498 L22.5185507,228.208139 L65.2425253,194.750921" id="Path-9"></path>
            <path d="M70,91.5520978 C126.9558,98.1700787 158.68886,99.8245739 165.19918,96.5155834 C171.7095,93.206593 191.935506,89.0347319 225.877198,84 C241.921844,90.3361625 251.87573,98.6133884 255.738858,108.831678 C261.533549,124.159111 274.011135,204.035607 249.944167,283.698365 C233.899521,336.806869 211.25906,396.715429 182.022784,463.424043 C145.03492,497.628554 123.634144,528.794811 117.820453,556.922813 C112.006763,585.050815 112.006763,606.529171 117.820453,621.357881 L108.810183,653.651412 L80.5539379,653.651412" id="Path-63"></path>
            <path d="M103,383 L109.412159,500.769978 C109.412159,544.92046 109.412159,575.613325 109.412159,592.848574 C109.412159,610.083823 112.201843,621.518047 117.781213,627.151247" id="Path-64"></path>
            <path d="M185,458.591181 C244.299767,391.943581 290.092364,344.034624 322.377793,314.86431 C370.805936,271.108838 431.156585,214.186066 652.354723,214.186066 C799.820149,214.186066 880.952822,209.790711 895.752743,201 L904.059714,214.186066 L895.752743,229.373812 C751.894511,233.702445 670.761838,235.866762 652.354723,235.866762 C635.479529,235.866762 577.208757,236.80141 520.529791,244.934374 C484.472384,250.108315 449.059198,258.195495 425.357968,270.808586 C384.719696,292.435069 350.392971,317.529046 322.377793,346.090516 C312.219268,348.463341 301.458153,352.422914 290.09445,357.969235 C278.730746,363.515556 278.730746,373.152811 290.09445,386.880999 L300.697098,377.867184 C339.562516,364.809792 360.111606,356.813915 362.344368,353.879553 C365.693512,349.478011 445.673614,311.298219 472.965381,286.064917" id="Path-65"></path>
            <path d="M114,636.980452 C134.506754,589.625448 147.265391,559.858596 152.275912,547.679897 C159.791693,529.411848 232.958444,433.946298 288.791891,383" id="Path-66"></path>
            <path d="M109,654.125542 C112.503587,652.086322 118.407444,643.150359 126.71157,627.317655 C139.16776,603.5686 152.398491,551.657723 155.014079,545" id="Path-67"></path>
            <path d="M323,347.133286 C400.011254,311.713156 450.480374,281.002061 474.407361,255" id="Path-68"></path>
            <path d="M472,287.332888 C499.346863,264.823059 516.046633,251.04543 522.09931,246" id="Path-69"></path>
            <path d="M421,249.746293 C425.100077,244.751894 464.13136,204.605994 475.563571,191.891482 C486.995782,179.17697 578.647457,74.077569 630.876582,49.8059039 C665.695998,33.6247939 693.044091,17.0228259 712.92086,0 C700.775163,39.3655589 681.029913,74.7165278 653.685108,106.052907 C626.340303,137.389286 592.300131,174.584796 551.564592,217.639437" id="Path-70"></path>
            <path d="M897.753003,201.72922 C888.600906,154.761551 902.267769,120.544865 938.753591,99.0791594 C975.239414,77.6134542 1003.16246,63.902938 1022.52273,57.947611 C1049.65162,40.5584589 1065.55824,31.8638829 1070.24258,31.8638829 C1077.26909,31.8638829 1097.67872,23.1701464 1112.56788,31.8638829 C1122.49398,37.6597073 1120.91407,42.4204431 1107.82813,46.1460903 C1078.71133,59.3226921 1061.89051,68.0785508 1057.36567,72.4136662 C1050.57841,78.9163394 954.670281,102.070535 944.374802,114.86461 C934.079323,127.658685 892.600226,130.202333 900.989229,189.066384" id="Path-71"></path>
            <path d="M900,226 C902.862654,230.424101 907.641019,239.552692 914.335095,253.385774 C924.37621,274.135396 936.265877,313.113658 1050.72501,284.075772" id="Path-72"></path>
            <path d="M932,239.216762 C974.659416,242.895398 1020.07319,234.920263 1068.24133,215.291358 C1116.40946,195.662452 1143.12952,182.643674 1148.40151,176.235023 L1148.40151,159.283245 L1143.04222,144.449494 L1143.04222,123.551282 L1125.20646,110.694525 L1130.15272,100.489711 L1120.33827,88.0787216 C1088.59219,80.6929072 1067.29942,77 1056.45996,77" id="Path-73"></path>
            <path d="M1093,55 C1106.77264,62.1423629 1115.90459,71.1752526 1120.39585,82.0986689 C1124.88711,93.0220853 1124.88711,94.9806105 1120.39585,87.9742446" id="Path-74"></path>
            <path d="M1048,285.000976 L1063.87136,272.879611 C1095.80548,258.804757 1118.24751,248.529425 1131.19745,242.053615 C1144.14739,235.577806 1155.15727,229.530135 1164.2271,223.910603 L1145.85491,191.588641 L1131.19745,187" id="Path-75"></path>
            <path d="M912,187.458315 C988.573415,118.558167 1056.27492,85.8197469 1115.10451,89.2430547" id="Path-76"></path>
        </g>
    </g>
</svg>