<?xml version="1.0" encoding="UTF-8"?>
<svg width="936px" height="2456px" viewBox="0 0 936 2456" version="1.1" xmlns="http://www.w3.org/2000/svg" xmlns:xlink="http://www.w3.org/1999/xlink">
    <g id="Page-1" stroke="none" stroke-width="1" fill="none" fill-rule="evenodd">
        <g id="women" transform="translate(7.000000, 2.000000)" stroke="#910062" stroke-width="5">
            <path d="M448.206251,55.1502198 L490.891241,78.8864492 C503.278489,110.16523 506.375301,134.701006 500.181677,152.493777 C493.988053,170.286547 487.727392,194.787987 481.399693,225.998095 L448.206251,281.152086 L411.108276,310.784358 C429.860284,303.864766 445.221986,303.864766 457.193382,310.784358 C469.164779,317.70395 480.397398,330.416576 490.891241,348.922234 C504.014268,275.972203 510.575781,231.406888 510.575781,215.226291 C510.575781,190.955396 530.260321,140.574158 510.575781,78.8864492 C497.452755,37.7613103 472.871197,17.1987408 436.831108,17.1987408 C405.058537,-2.34027834 378.549239,-4.69804116 357.303213,10.1254524 C325.434173,32.3606927 243.017119,190.572791 252.8226,238.422949 C259.359587,270.323055 268.002537,286.273108 278.75145,286.273108 L314.907629,252.692156 C293.975535,231.171439 286.586679,210.532021 292.741061,190.773904 C301.972634,161.136727 271.938137,143.453506 301.972634,114.444194 C321.995633,95.1046526 326.307297,104.774423 314.907629,143.453506 C322.778829,109.126965 335.066337,83.4956956 351.770155,66.5596989 C368.473972,49.6237022 400.619338,45.8205425 448.206251,55.1502198 Z" id="Path-2"></path>
            <path d="M309.835011,264.296801 C323.575716,313.680985 317.349995,350.474017 291.157847,374.675895 C264.965699,398.877773 214.735895,424.170378 140.468435,450.553709 C60.3135009,655.272086 20.236034,775.14418 20.236034,810.169989 C20.236034,862.708702 178.359546,895.143729 210.184256,895.143729 C231.400729,895.143729 268.328569,901.153755 320.967777,913.173809 L407.323921,932.961308 L463.340704,932.961308 L513.901403,913.173809" id="Path-3"></path>
            <path d="M315.23382,258.165557 C349.874026,295.626716 369.17975,314.357295 373.150995,314.357295 C377.122239,314.357295 391.083217,312.449728 415.033928,308.634595" id="Path-4"></path>
            <path d="M404.570863,313.909672 L396.260511,365.014694 L432.553478,414.598224 L451.630699,414.598224 C475.826151,527.478885 485.057056,593.707918 479.323414,613.285323 C473.589771,632.862728 460.020559,629.692361 438.615776,603.774222 C368.904939,466.358792 320.882898,397.651076 294.549654,397.651076 C268.216409,397.651076 263.242929,394.161597 279.629211,387.182639" id="Path-5"></path>
            <path d="M436.161798,611.432414 C418.854241,604.631832 392.387761,615.769105 356.76236,644.844233 C340.63068,658.009858 326.975966,679.517281 315.798219,709.366502 L323.392744,776.457469 C333.449375,771.77858 338.47769,763.449798 338.47769,751.471123 C338.47769,739.492447 338.47769,723.196854 338.47769,702.584344" id="Path-6"></path>
            <path d="M186.032826,631.704746 L135.077627,761.363486" id="Path-10"></path>
            <path d="M86.4003581,759.545454 C116.240995,758.182529 139.237064,762.903663 155.388566,773.708858 C179.61582,789.916649 277.890153,848.909274 321.990005,856.914364 C351.389907,862.251091 366.089858,857.504805 366.089858,842.675508 L415.823454,814.122345 L461.673073,817.884162" id="Path-11"></path>
            <path d="M3.18577216,833.287283 L20.7830903,820.404327" id="Path-12"></path>
            <path d="M143.326841,764.81044 L326.260377,683.324628" id="Path-13"></path>
            <path d="M444.393679,662.117414 C556.159628,641.125162 620.974687,641.125162 638.838855,662.117414 C665.635109,693.605791 703.883702,755.552205 703.883702,830.633602 C703.883702,905.714998 799.712737,890.749124 799.712737,860.691363 C799.712737,830.633602 812.432618,818.506722 782.404507,779.605827 C752.376396,740.704931 675.938509,724.167603 675.938509,626.122225 C675.938509,560.75864 727.124418,528.076848 829.496235,528.076848 C878.384263,534.683872 902.828278,548.607052 902.828278,569.846388 C902.828278,601.705391 925.792259,679.736969 925.792259,697.393588 C925.792259,715.050206 892.991866,769.710115 861.244051,779.605827 C840.07884,786.202968 843.009256,774.842048 870.035297,745.523068 C875.896128,708.331994 875.896128,685.133283 870.035297,675.926935 C864.174466,666.720588 853.91307,655.819244 839.251109,643.222905 C812.892195,617.343333 799.712737,598.644021 799.712737,587.124967 C799.712737,569.846388 781.463118,562.233731 762.494484,569.846388 C743.52585,577.459044 710.873707,590.127037 721.555146,626.122225 C732.236584,662.117414 797.74842,746.26432 829.496235,762.935073 C861.244051,779.605827 879.671571,906.663801 811.854442,931.021335 C766.643023,947.259692 708.971161,927.065522 638.838855,870.438824 L554.92915,880.371599 L473.020824,870.438824 L444.393679,852.20403 L494.316989,830.633602 L485.414554,805.364327 L460.738281,818.380709" id="Path-14"></path>
            <polyline id="Path-15" points="0.53950317 838.461221 17.4326321 860.824788 17.4326321 886.701889 72.863443 862.581555 99.2075325 886.701889 0.53950317 920.480735 58.5202203 941.287673 118.635743 912.223189 190.374094 912.223189 233.092436 900.993224"></polyline>
            <polyline id="Path-16" points="455.796002 918.881488 473.027213 924.380714 524.474816 902.292689"></polyline>
            <polyline id="Path-17" points="473.189779 897.684619 491.458254 902.526639 539.038407 889.869431 557.729261 879.689864"></polyline>
            <polyline id="Path-18" points="346.366517 687.225441 340.258198 712.551936 357.426773 778.662969"></polyline>
            <path d="M434.520763,610.049014 L523.087751,651.960539" id="Path-19"></path>
            <path d="M163.895996,451.47098 C218.338135,510.762878 245.559205,562.912186 245.559205,607.918905 C245.559205,675.428982 221.351228,694.969667 204.7276,694.969667 C193.645182,694.969667 183.825622,684.13694 175.268919,662.471484" id="Path-20"></path>
            <path d="M174.109299,673.095336 L203.063797,737.78199" id="Path-21"></path>
            <polyline id="Path-22" points="594.277515 516.45813 614.960707 609.550855 645.070148 667.136472"></polyline>
            <path d="M451.758193,415.246306 L544.403377,452.77843 L609.75908,460.006113 C592.191838,526.37523 576.90741,567.461676 563.905797,583.265451" id="Path-23"></path>
            <path d="M559.363574,537.710618 C564.782272,602.659526 564.782272,638.452639 559.363574,645.089958" id="Path-24"></path>
            <path d="M230.47218,903.941746 L254.012414,996.125681 C228.974645,1054.89495 216.455761,1102.63019 216.455761,1139.33141" id="Path-25"></path>
            <path d="M562.145364,881.121652 C562.145364,928.868284 562.145364,964.597057 562.145364,988.307969 C562.145364,1023.87434 576.23811,1088.79696 576.23811,1111.28863" id="Path-26"></path>
            <path d="M263.86863,1172.32685 L244.591854,1136.94089 L210.623428,1154.63387 L173.093654,1185.23345 L134.47885,1210.83665 L114.230798,1258.59545 L64.9844545,1318.21958 L64.9844545,1458.2059 L114.230798,1590.77202 L101.717957,1505.08968 L114.230798,1472.43379 L134.47885,1483.9316 L134.47885,1445.66681 L164.426542,1433.73148 C117.464011,1412.91175 100.732096,1402.50188 114.230798,1402.50188 C127.7295,1402.50188 141.213617,1398.53511 154.683152,1390.60156 L154.683152,1363.85645 L173.093654,1390.60156 L173.093654,1343.86653 L173.093654,1304.91047 L197.804328,1270.11077 L187.172788,1258.59545 L244.591854,1210.83665 L263.86863,1172.32685 Z" id="Path-27"></path>
            <polyline id="Path-28" points="114.830161 1589.42908 131.204529 1725.90266 175.348293 1897.0196 301.493854 2139.9813 431.380759 2032.85025 400.054691 1945.10306 344.495379 1768.50064 286.207006 1522.71413 273.10546 1420.93177 252.856372 1349.17592 273.10546 1304.76541 252.856372 1274.32851 252.856372 1236.3884 252.856372 1198.82448 264.395035 1171.99213"></polyline>
            <polyline id="Path-29" points="122.147041 1657.77749 98.493779 1712.75207 110.32041 1736.55936 110.32041 1767.99069 122.147041 1825.93572 128.999718 1834.80751 113.746749 1840.83129 128.999718 1886.62119 141.68426 1886.62119 141.68426 1901.85372 134.9681 1908.84684 150.897633 1951.93182 160.267946 1951.93182 160.267946 1960.66052 150.897633 1966.13038 172.980184 2013.8682 181.916601 2008.83685 181.916601 2013.8682 172.980184 2026.55736 202.171249 2078.24641 236.836793 2060.62284 202.171249 2093.25738 236.836793 2137.99485 285.613198 2106.11732"></polyline>
            <path d="M143.264122,1480.26164 C143.264122,1480.26164 163.736432,1459.07211 204.681051,1416.69305 L228.421369,1364.21587 L256.753101,1344.23871 L249.418179,1344.23871 L212.791467,1364.21587 L189.338875,1388.3418" id="Path-30"></path>
            <path d="M197.87567,1346.90188 C203.246558,1346.90188 217.061295,1341.33938 239.31988,1330.21438 L253.652258,1338.55813 L259.833927,1330.21438 L228.854798,1321.77625 L191.290755,1321.77625" id="Path-31"></path>
            <path d="M218.775804,1411.4555 L264.77154,1393.66979" id="Path-32"></path>
            <path d="M147.654434,1502.42599 L275.882243,1450.40301" id="Path-33"></path>
            <path d="M132.844787,1565.06562 L281.899802,1508.38387" id="Path-34"></path>
            <path d="M129.121622,1625.87931 L293.058161,1562" id="Path-34-Copy"></path>
            <path d="M149.121622,1675.87931 L313.058161,1612" id="Path-34-Copy-2"></path>
            <path d="M152.121622,1739.87931 L316.058161,1676" id="Path-34-Copy-3"></path>
            <path d="M170.121622,1793.87931 L334.058161,1730" id="Path-34-Copy-4"></path>
            <path d="M188.121622,1846.87931 L352.058161,1783" id="Path-34-Copy-5"></path>
            <path d="M199.123188,1941.88095 L351.876812,1850.11905" id="Path-34-Copy-6"></path>
            <path d="M226.114286,2002.88776 L379.885714,1896.11224" id="Path-34-Copy-7"></path>
            <path d="M260.119048,2072.87037 L398.880952,1953.12963" id="Path-34-Copy-8"></path>
            <path d="M290.12931,2124.88776 L418.87069,2018.11224" id="Path-34-Copy-9"></path>
            <path d="" id="Path-35"></path>
            <path d="M565.923146,1094.87989 L660.578376,1375.70978 L660.578376,1611.44619 L769.319684,1987.24188 C730.267388,1995.99141 696.367965,2000.36618 667.621415,2000.36618 C624.501589,2000.36618 533.062312,2017.16728 520.909815,2017.16728 C512.80815,2017.16728 492.640815,2040.48378 460.40781,2087.11677 L415.855332,2048.57542" id="Path-36"></path>
            <path d="" id="Path-37"></path>
            <path d="M552.785198,1051.41871 C493.308029,1157.44602 451.691417,1215.75508 427.935364,1226.3459 C404.17931,1236.93672 362.434436,1273.60606 302.700742,1336.35393" id="Path-38"></path>
            <polyline id="Path-39" points="543.536554 1215.18706 458.168675 1597.22618 458.168675 1960.03966"></polyline>
            <path d="M545.941476,1216.94609 C563.934877,1433.6548 578.758362,1566.90583 590.411929,1616.69918 C602.065496,1666.49253 596.238713,1735.60313 572.931578,1824.03099 L515.62571,1986.61749" id="Path-40"></path>
            <polyline id="Path-41" points="141.588762 1939.56384 102.468447 2087.73742 94.3582835 2135.87768 128.031921 2087.73742 168.20566 2078.24464 168.20566 2118.48422 198.090564 2069.52397"></polyline>
            <path d="M186.422005,2093.27736 C196.429865,2132.22086 199.765818,2163.24192 196.429865,2186.34055 C193.093912,2209.43918 191.425935,2224.60072 191.425935,2231.82515 C212.408579,2304.4949 227.69052,2346.59221 237.271758,2358.11707 C251.643616,2375.40438 286.848984,2417.00172 341.549324,2394.1659" id="Path-42"></path>
            <path d="M342.165418,2393.88353 C352.797928,2386.12612 358.114183,2380.05931 358.114183,2375.68309 C358.114183,2371.30686 355.456055,2367.18368 350.1398,2363.31353 C338.885084,2346.63499 329.435254,2325.51544 321.790311,2299.95487 C310.322896,2261.61403 281.615853,2135.91253 281.615853,2115.97016" id="Path-43"></path>
            <path d="M196.09419,2193.05079 C166.394873,2211.55623 151.545214,2236.50894 151.545214,2267.90892 C151.545214,2299.3089 166.394873,2318.07953 196.09419,2324.22081 L233.421792,2397.4749 L255.22119,2433.98438 C344.667003,2452.68952 401.020764,2456.05326 424.282473,2444.07562 C447.544182,2432.09798 426.153846,2409.03167 360.111463,2374.87671" id="Path-44"></path>
            <polyline id="Path-45" points="173.252919 2315.97125 173.252919 2399.41315 181.408919 2399.41315 187.368819 2321.58388"></polyline>
            <path d="M427.501182,2057.71775 C425.241138,2118.09288 422.189528,2157.92918 418.346352,2177.22664 C414.503176,2196.5241 434.721193,2242.61024 479.000404,2315.48507 L493.132841,2331.59862 C535.557713,2346.80596 560.547178,2349.18397 568.101235,2338.73264 C575.655292,2328.28132 575.655292,2323.05566 568.101235,2323.05566 C557.43383,2311.84364 550.608499,2303.36572 547.625242,2297.6219 C543.150356,2289.00618 521.149661,2214.90334 521.149661,2201.41798 C521.149661,2187.93263 511.700475,2081.83848 536.237931,2015.68094" id="Path-46"></path>
            <path d="M413.408433,2169.32861 C388.847825,2190.87069 380.660956,2215.15678 388.847825,2242.1869" id="Path-47"></path>
            <path d="M390.580893,2242.99059 C414.874705,2262.03228 430.915501,2276.12393 438.703279,2285.26553 C450.384947,2298.97793 475.358978,2338.52097 475.358978,2357.81954 C475.358978,2370.68525 486.362633,2380.78929 508.369943,2388.13168 C577.888876,2398.70868 617.832111,2398.70868 628.199646,2388.13168 C638.567182,2377.55468 620.683073,2356.60793 574.547319,2325.29145" id="Path-48"></path>
            <polyline id="Path-49" points="390.291934 2243.93898 397.144971 2344.33965 408.449257 2344.33965 411.05599 2260.09289"></polyline>
            <path d="M439.709236,152.224526 C432.471665,157.589096 428.852879,166.216092 428.852879,178.105513 C428.852879,189.994933 429.777118,202.009272 431.625595,214.148528 C410.392626,203.198674 398.266398,199.691777 395.246911,203.627839 C392.227424,207.563901 403.429413,212.712356 428.852879,219.073204" id="Path-50"></path>
            <path d="M379.808212,239.569845 C384.408533,239.569845 393.334244,239.569845 406.585345,239.569845 L419.890828,247.639542 C424.936277,256.48368 427.459002,260.905749 427.459002,260.905749 C427.459002,260.905749 423.768798,266.199477 403.633607,260.905749 C390.210146,257.376596 381.059296,250.775321 376.181057,241.101921 C373.998839,240.080537 375.20789,239.569845 379.808212,239.569845 Z" id="Path-51"></path>
            <path d="M402.85258,227.540574 C402.85258,227.540574 403.896848,233.470014 410.06709,233.470014 C414.180584,233.470014 417.122655,232.481774 418.893301,230.505294 L428.034223,258.923453" id="Path-52"></path>
            <path d="M402.180243,228.462057 C387.965004,235.459607 378.994948,238.958382 375.270074,238.958382 C371.5452,238.958382 366.765329,237.741261 360.930461,235.30702" id="Path-53"></path>
            <path d="M443.949686,166.595051 C449.306584,158.107807 454.823567,151.741002 460.500635,147.494636 C466.177703,143.248269 477.454998,143.248269 494.33252,147.494636" id="Path-54"></path>
            <path d="M444.401659,165.889313 C459.510825,163.185169 468.398071,163.185169 471.0634,165.889313" id="Path-55"></path>
            <path d="M413.51659,159.322122 C418.146416,132.508599 414.387349,119.101837 402.239389,119.101837 C390.091428,119.101837 372.866926,117.607012 350.565884,114.61736" id="Path-56"></path>
            <path d="" id="Path-57"></path>
            <polyline id="Path-58" points="349.792154 147.110871 373.665918 144.117301 389.069553 149.153199 396.08924 157.714387 405.258574 168.410588"></polyline>
            <polyline id="Path-59" points="374.23016 147.457221 374.23016 158.598962 387.370324 163.469002 391.385058 153.42485"></polyline>
            <path d="M356.358171,148.549932 C367.168196,159.606033 381.969106,165.134084 400.760901,165.134084" id="Path-60"></path>
            <path d="M885.310736,626.337021 L917.135523,635.250945" id="Path-61"></path>
            <path d="M890.798687,626.976394 L861.669923,666.244547" id="Path-62"></path>
            <circle id="Oval" cx="881" cy="598" r="5"></circle>
            <polyline id="Path-7" points="359.682306 777.450111 421.026074 729.018933 415.223726 667.998061 438.423334 653.911303 445.784716 663.0372"></polyline>
            <polyline id="Path-8" points="369.549064 671 362 708.339173 377.839791 758.083534"></polyline>
            <polyline id="Path-8-Copy" points="392.919896 665.397999 385 691.339173 400.839791 741.083534"></polyline>
        </g>
    </g>
</svg>